<?xml version="1.0" encoding="iso-8859-1"?>
<!-- Generator: Adobe Illustrator 19.0.0, SVG Export Plug-In . SVG Version: 6.00 Build 0)  -->
<svg version="1.1" id="Capa_1" xmlns="http://www.w3.org/2000/svg" xmlns:xlink="http://www.w3.org/1999/xlink" x="0px" y="0px"
	 viewBox="0 0 275.522 275.522" style="enable-background:new 0 0 275.522 275.522;" xml:space="preserve">
<path style="fill:#BDEBC8;" d="M17.701,5.362l-5.12,264.8h106.28l18.92-95.28l18.92,94.4h106.28l-5.12-263.92L17.701,5.362z"/>
<g>
	<path style="fill:#8DCCA1;" d="M123.821,35.162h26.44v92c0,0-21.96-1.96-24.48-23S123.821,35.162,123.821,35.162L123.821,35.162z"
		/>
	<path style="fill:#8DCCA1;" d="M47.661,39.442c0,0-3.68,78.32-29.6,87.56l-2.2-75.28l2.2-16l19.32-2.68L47.661,39.442z"/>
	<path style="fill:#8DCCA1;" d="M227.701,39.442c0,0,3.68,78.32,29.6,87.56l2.2-75.28l-2.2-16l-19.32-2.68L227.701,39.442z"/>
</g>
<path style="fill:#325440;" d="M263.821,35.362c0.38-0.909,0.38-1.931,0-2.84l-0.52-27.24c-0.043-2.96-2.477-5.325-5.437-5.282
	c-0.028,0-0.055,0.001-0.083,0.002h-240c-2.929,0-5.316,2.351-5.36,5.28l-0.52,27.24c-0.391,0.92-0.391,1.96,0,2.88l-4.72,234.64
	c-0.066,2.96,2.279,5.412,5.239,5.479c0.04,0.001,0.081,0.001,0.121,0.001h106.32c2.568,0.01,4.782-1.801,5.28-4.32l13.64-68.84
	l13.64,68c0.498,2.519,2.712,4.33,5.28,4.32h106.28c2.96,0.001,5.361-2.398,5.361-5.359c0-0.04,0-0.081-0.001-0.121L263.821,35.362z
	 M254.701,120.442c-15.36-6.92-21.4-53.36-22.24-81h20.68L254.701,120.442z M252.901,28.722h-39.12v-17.96h38.8L252.901,28.722z
	 M151.221,28.722h-8v-17.96h60v17.96L151.221,28.722z M124.301,28.722h-54.52v-17.96h62.64v17.96L124.301,28.722z M129.781,39.442
	h16v81.2c-9.445-2.535-16.008-11.1-16-20.88V39.442z M59.181,10.762v17.96h-36.56l0.36-17.96H59.181z M22.421,39.482h20.68
	c-0.84,27.6-6.88,74.04-22.24,80.96L22.421,39.482z M161.101,263.922l-18.04-90.16c-0.515-2.503-2.725-4.294-5.28-4.28
	c-2.555-0.014-4.765,1.777-5.28,4.28l-18.04,91h-96.4l2.6-133.08c28.44-5.4,32.6-71.44,33.2-92.24h65.08v60.36
	c0.022,17.819,14.461,32.258,32.28,32.28c2.96,0,5.36-2.4,5.36-5.36v-87.28h65.2c0.6,20.84,4.76,86.88,33.24,92.24l2.56,132.2
	L161.101,263.922z"/>
<g>
</g>
<g>
</g>
<g>
</g>
<g>
</g>
<g>
</g>
<g>
</g>
<g>
</g>
<g>
</g>
<g>
</g>
<g>
</g>
<g>
</g>
<g>
</g>
<g>
</g>
<g>
</g>
<g>
</g>
</svg>
